<?xml version="1.0" encoding="UTF-8"?>
<svg xmlns="http://www.w3.org/2000/svg" width="360" height="420" viewBox="0 0 360 420" role="img" aria-label="B-2D-2TD-2PART cabinet front elevation">
  <rect width="360" height="420" fill="#F7F3EC"/>
  <rect x="40.0" y="76.4" width="280.0" height="249.3" rx="3" fill="#FBFAF6" stroke="#5E564A" stroke-width="1.8"/>
  <rect x="48.0" y="84.4" width="264.0" height="35.3" rx="1" fill="#ECE6DB" stroke="#8C8170" stroke-width="1.2"/><line x1="140.4" y1="102.0" x2="219.6" y2="102.0" stroke="#6E6555" stroke-width="2"/><rect x="48.0" y="123.7" width="264.0" height="35.3" rx="1" fill="#ECE6DB" stroke="#8C8170" stroke-width="1.2"/><line x1="140.4" y1="141.3" x2="219.6" y2="141.3" stroke="#6E6555" stroke-width="2"/><rect x="48.0" y="163.0" width="130.0" height="154.6" rx="2" fill="#ECE6DB" stroke="#8C8170" stroke-width="1.4"/><rect x="54.0" y="169.0" width="118.0" height="142.6" rx="1" fill="none" stroke="#8C8170" stroke-width="0.8"/><line x1="170.0" y1="217.1" x2="170.0" y2="263.5" stroke="#6E6555" stroke-width="2.2"/><rect x="182.0" y="163.0" width="130.0" height="154.6" rx="2" fill="#ECE6DB" stroke="#8C8170" stroke-width="1.4"/><rect x="188.0" y="169.0" width="118.0" height="142.6" rx="1" fill="none" stroke="#8C8170" stroke-width="0.8"/><line x1="190.0" y1="217.1" x2="190.0" y2="263.5" stroke="#6E6555" stroke-width="2.2"/><line x1="136.0" y1="167.0" x2="136.0" y2="313.6" stroke="#B7AD9B" stroke-width="1.4" stroke-dasharray="5 3"/><line x1="224.0" y1="167.0" x2="224.0" y2="313.6" stroke="#B7AD9B" stroke-width="1.4" stroke-dasharray="5 3"/>
  <rect x="54.0" y="325.6" width="252.0" height="18.0" rx="1" fill="#F7F3EC" stroke="#8C8170" stroke-width="1"/>
</svg>