<?xml version="1.0" encoding="UTF-8"?>
<svg xmlns="http://www.w3.org/2000/svg" width="360" height="420" viewBox="0 0 360 420" role="img" aria-label="TA-3D cabinet front elevation">
  <rect width="360" height="420" fill="#F7F3EC"/>
  <rect x="40.0" y="147.4" width="280.0" height="115.2" rx="3" fill="#FBFAF6" stroke="#5E564A" stroke-width="1.8"/>
  <rect x="48.0" y="155.4" width="85.3" height="27.8" rx="2" fill="#ECE6DB" stroke="#8C8170" stroke-width="1.4"/><rect x="54.0" y="161.4" width="73.3" height="15.8" rx="1" fill="none" stroke="#8C8170" stroke-width="0.8"/><line x1="125.3" y1="165.1" x2="125.3" y2="173.4" stroke="#6E6555" stroke-width="2.2"/><rect x="137.3" y="155.4" width="85.3" height="27.8" rx="2" fill="#ECE6DB" stroke="#8C8170" stroke-width="1.4"/><rect x="143.3" y="161.4" width="73.3" height="15.8" rx="1" fill="none" stroke="#8C8170" stroke-width="0.8"/><line x1="145.3" y1="165.1" x2="145.3" y2="173.4" stroke="#6E6555" stroke-width="2.2"/><rect x="226.7" y="155.4" width="85.3" height="27.8" rx="2" fill="#ECE6DB" stroke="#8C8170" stroke-width="1.4"/><rect x="232.7" y="161.4" width="73.3" height="15.8" rx="1" fill="none" stroke="#8C8170" stroke-width="0.8"/><line x1="234.7" y1="165.1" x2="234.7" y2="173.4" stroke="#6E6555" stroke-width="2.2"/><rect x="48.0" y="187.2" width="264.0" height="67.5" rx="2" fill="#FBFAF6" stroke="#8C8170" stroke-width="1.2"/><line x1="54.0" y1="220.9" x2="306.0" y2="220.9" stroke="#B7AD9B" stroke-width="1" stroke-dasharray="4 3"/>
  <rect x="54.0" y="262.6" width="252.0" height="10.0" rx="1" fill="#F7F3EC" stroke="#8C8170" stroke-width="1"/>
</svg>